<svg xmlns="http://www.w3.org/2000/svg" viewBox="0 0 792.5589 267.40728"><defs><style>.cls-1{fill:#442161;}</style></defs><title>Asset 1</title><g id="Layer_2" data-name="Layer 2"><g id="Layer_1-2" data-name="Layer 1"><path class="cls-1" d="M0,245.78031,97.12487,117.288H9v-26H141v18.671L43.958,238.288H142v26H0Z"/><path class="cls-1" d="M167.37178,230.0662q0-20.478,20.77262-31.63,20.77358-11.14257,66.233-15.55468a29.88563,29.88563,0,0,0-1.50569-9.46243,22.43019,22.43019,0,0,0-4.666-8.03709,21.10671,21.10671,0,0,0-8.12828-5.44433,34.57985,34.57985,0,0,0-12.49435-1.94385,64.80552,64.80552,0,0,0-21.52545,3.62893,139.35,139.35,0,0,0-20.02076,8.81447l-12.64431-19.962a160.89519,160.89519,0,0,1,27.54714-11.667,106.45627,106.45627,0,0,1,32.966-4.92578q27.999,0,41.54619,14.12941Q289,162.14527,289,188.84453V264.288H260.7l-2.70943-14h-.90281a111.10523,111.10523,0,0,1-21.22451,12.1856,60.72043,60.72043,0,0,1-24.5368,4.92581q-19.57377,0-31.76128-10.24076Q167.37129,246.92017,167.37178,230.0662ZM199.639,227.123q0,8.727,5.989,12.694,5.98951,3.969,15.51,3.968a38.33085,38.33085,0,0,0,16.892-3.703,79.44654,79.44654,0,0,0,15.97-10.579v-29.093a185.00813,185.00813,0,0,0-25.798,4.232,77.89468,77.89468,0,0,0-16.738,5.95q-6.29851,3.31045-9.06,7.538A16.16792,16.16792,0,0,0,199.639,227.123Z"/><path class="cls-1" d="M333,77.288h35v50.7605l-.90539,21.31966a89.04148,89.04148,0,0,1,20.37887-11.43988,59.94214,59.94214,0,0,1,22.49244-4.41984,63.68379,63.68379,0,0,1,24.7584,4.5496,50.49405,50.49405,0,0,1,18.41667,13,56.86933,56.86933,0,0,1,11.47333,20.40935,85.71946,85.71946,0,0,1,3.92439,26.77959q0,16.37973-5.284,29.25a66.073,66.073,0,0,1-14.0391,21.70991,60.21758,60.21758,0,0,1-20.22848,13.52,62.57553,62.57553,0,0,1-23.852,4.68034,55.49455,55.49455,0,0,1-20.68164-4.15935A73.26039,73.26039,0,0,1,364.67827,251.288h-.90539l-3.019,13H333v-187Zm34.999,154.331a49.88067,49.88067,0,0,0,30.406,10.844,32.529,32.529,0,0,0,25.184-11.241q10.13553-11.238,10.135-33.456,0-19.569-7.678-30.415-7.68-10.842-24.877-10.844-15.972,0-33.169,14.547v60.565Z"/><path class="cls-1" d="M449.421,105.288h1.93a7.6121,7.6121,0,0,1,3.771,1.335,4.07982,4.07982,0,0,1,2.193,3.624q0,4.578-1.842,6.713a27.314,27.314,0,0,1-5.921,4.73q-4.08,2.59351-5.745,2.594-3.684,0-5.438-1.45-1.75653-1.44749-1.755-7.934,0-6.02549.79-7.171.789-1.1445,3.815-1.793A41.02405,41.02405,0,0,1,449.421,105.288Z"/><path class="cls-1" d="M505.821,130.298q-13.15649,0-20.219-6.561-7.06046-6.55948-7.061-18.385,0-19.911,18.156-41.996,18.15747-22.08448,33.771-22.085,7.104,0,12.236,6.675a22.84179,22.84179,0,0,1,5.131,14.151,13.29525,13.29525,0,0,1-2.236,7.743q-2.23655,3.24448-4.518,3.242-5.088,0-7.192-8.925-2.36847-9.612-6.842-9.612-9.123,0-21.578,18.843Q493.013,92.23249,493.014,105.2q0,12.969,16.929,12.969,12.894,0,30.35-10.527,6.138-3.7365,9.034-3.738a2.63319,2.63319,0,0,1,2.982,2.975q0,5.799-15.701,14.609Q520.9075,130.29748,505.821,130.298Z"/><path class="cls-1" d="M589.676,109.015a53.46013,53.46013,0,0,0,1.843,13.045,9.68253,9.68253,0,0,1,.351,2.289q0,1.374-2.895,3.547a10.06015,10.06015,0,0,1-6.14,2.174q-8.50945,0-8.509-13.579,0-14.0355,6.666-44.399,2.28148-10.602,2.281-13.045a15.76,15.76,0,0,1,2.018-8.201,6.30785,6.30785,0,0,1,5.701-3.395,11.85374,11.85374,0,0,1,7.061,1.869q2.58747,1.87051,2.588,4.158a20.41979,20.41979,0,0,1-1.229,6.026q-6.579,20.1405-8.157,28.836A117.36409,117.36409,0,0,0,589.676,109.015Zm11.491-85.213q-1.8435,0-2.807-3.433a21.0685,21.0685,0,0,0-.965-2.365,20.61806,20.61806,0,0,1-2.369-8.621q0-3.051,4.167-6.217A14.93067,14.93067,0,0,1,608.447,0a12.176,12.176,0,0,1,5.701,1.716q3.15747,1.71749,3.158,3.319,0,2.517-2.149,8.544-2.151,6.027-6.842,8.125Q603.623,23.804,601.167,23.802Z"/><path class="cls-1" d="M660.549,49.228q9.033-.609,17.017-1.449,7.896-.762,13.157-.763,6.6645,0,8.421,1.068a4.01976,4.01976,0,0,1,1.754,3.738q0,6.18-9.911,6.713-12.7185.687-23.42,1.907-10.70252,1.221-11.534,2.021-.83551.801-5.307,18.156-4.473,17.355-4.474,22.542,0,8.3925,2.544,11.176,2.54251,2.78548,7.631,2.785,7.542,0,20.964-9.841,5.17347-4.04251,7.981-4.043,3.771,0,3.772,3.509,0,5.493-12.148,14.228-12.15152,8.73449-24.867,8.735-21.228,0-21.227-21.742,0-7.857,4.385-24.335,4.29749-16.401,4.299-19.682,0-1.1445-2.105-1.144l-9.122.687q-11.229,0-11.228-7.781,0-4.4235,5.175-4.425h18.069a4.38477,4.38477,0,0,0,3.245-1.449q1.40248-1.4475,4.123-9.727,2.718-8.277,4.824-16.363,2.10451-8.01,8.245-8.01a7.58547,7.58547,0,0,1,5.877,2.289,6.59336,6.59336,0,0,1,2.105,4.272q0,1.06952-3.158,10.909Z"/><path class="cls-1" d="M773.876,99.021Q757.7345,111.228,745.5,116.758q-12.23547,5.532-18.727,5.531-8.685,0-13.289-6.294a24.20059,24.20059,0,0,1-4.605-14.685q0-11.7465,5.482-29.027,5.481-17.28,8.157-20.521,2.67453-3.24151,8.553-3.242a4.65974,4.65974,0,0,1,4.034,2.517,10.53744,10.53744,0,0,1,1.579,5.722q0,1.908-2.018,4.958a82.83561,82.83561,0,0,0-4.956,7.934q-.219.7635-3.377,9.192a45.27293,45.27293,0,0,0-3.157,15.83,35.70812,35.70812,0,0,0,1.447,8.086q1.44753,5.493,6.009,5.493a36.21238,36.21238,0,0,0,11.885-2.556,79.07778,79.07778,0,0,0,15.92-8.354q8.859-5.796,11.93-9.383a21.09124,21.09124,0,0,0,4.342-8.163q1.27049-4.578,1.798-19.834.52651-15.25648,8.509-15.257,4.73547,0,6.14,2.174,1.4025,2.1735,1.403,8.277a125.0325,125.0325,0,0,1-.789,12.587q-.96753,9.537-1.229,13.579a242.8783,242.8783,0,0,1-6.271,42.148q-5.04447,21.16951-14.692,35.397-9.64947,14.226-26.577,14.227-17.193,0-30.568-7.818-13.377-7.82254-13.376-13.236a10.07481,10.07481,0,0,1,1.359-4.958q1.35755-2.442,3.465-2.441a3.28558,3.28558,0,0,1,2.28,1.449q11.49,15.333,36.139,15.333,12.717,0,21.358-19.415,8.63845-19.4145,9.517-36.427A61.65235,61.65235,0,0,1,773.876,99.021Z"/></g></g></svg>