<?xml version="1.0" standalone="no"?>
<!DOCTYPE svg PUBLIC "-//W3C//DTD SVG 20010904//EN"
 "http://www.w3.org/TR/2001/REC-SVG-20010904/DTD/svg10.dtd">
<svg version="1.0" xmlns="http://www.w3.org/2000/svg"
 width="500.000000pt" height="142.000000pt" viewBox="0 0 500.000000 142.000000"
 preserveAspectRatio="xMidYMid meet">
<defs>
    <linearGradient id="grad1" x1="0%" y1="0%" x2="100%" y2="0%">
      <stop offset="0%" style="stop-color:rgb(255,255,0);stop-opacity:1" />
      <stop offset="100%" style="stop-color:rgb(255,0,0);stop-opacity:1" />
    </linearGradient>
  </defs>
<g transform="translate(0.000000,142.000000) scale(0.100000,-0.100000)"
fill="#440e62" stroke="none">

<path d="M3410 1343 c-24 -31 -23 -71 2 -87 13 -7 26 -6 52 7 44 20 57 58 31
87 -25 28 -60 25 -85 -7z"/>
<path d="M3712 1348 c-7 -7 -12 -26 -12 -42 0 -37 -35 -175 -47 -187 -4 -4
-28 -9 -53 -11 -43 -3 -45 -5 -45 -33 0 -24 6 -31 30 -39 17 -6 31 -11 33 -12
2 -1 -4 -40 -13 -87 -20 -109 -11 -159 41 -206 34 -31 40 -33 93 -29 84 6 138
47 187 141 35 68 40 107 15 107 -5 0 -28 -24 -52 -53 -64 -78 -105 -107 -150
-107 -62 0 -72 43 -41 174 l17 70 119 28 c129 31 146 39 146 73 0 34 -20 36
-125 13 -53 -11 -99 -18 -102 -14 -3 3 2 34 11 70 20 82 20 120 0 140 -19 19
-36 20 -52 4z"/>
<path d="M3003 1161 c-122 -89 -216 -286 -184 -391 17 -59 59 -84 127 -77 91
9 204 86 204 138 0 24 -24 24 -58 0 -41 -28 -94 -53 -130 -62 -48 -11 -77 19
-67 69 14 77 48 144 100 200 50 54 54 56 79 44 39 -18 63 -15 80 10 38 54 10
98 -63 98 -37 0 -57 -7 -88 -29z"/>
<path d="M4151 1158 c-10 -27 -37 -169 -47 -244 -12 -97 31 -164 106 -164 39
0 65 15 134 79 36 34 38 34 31 11 -38 -128 -162 -255 -283 -291 -49 -14 -64
-34 -51 -66 12 -31 57 -30 123 3 108 54 199 141 246 234 36 71 121 330 127
387 5 50 4 53 -21 63 -41 15 -56 1 -81 -78 -38 -119 -100 -203 -184 -246 -27
-14 -31 -14 -45 0 -23 22 -20 73 10 186 32 121 28 148 -21 148 -28 0 -37 -5
-44 -22z"/>
<path d="M3360 1125 c-17 -21 -118 -405 -112 -428 6 -25 49 -44 64 -29 6 6 37
109 69 228 61 228 62 244 14 244 -12 0 -28 -7 -35 -15z"/>
<path d="M2563 1105 c-77 -33 -68 -136 13 -135 72 1 111 88 58 129 -31 24 -30
24 -71 6z"/>
<path d="M2080 570 l0 -520 89 0 89 0 7 51 7 51 37 -35 c58 -56 96 -71 181
-71 97 -1 161 27 228 98 140 147 133 426 -14 555 -105 92 -275 92 -371 -1
l-33 -32 0 212 0 212 -110 0 -110 0 0 -520z m430 8 c64 -44 75 -69 75 -173 0
-100 -10 -125 -66 -167 -34 -25 -108 -26 -151 -1 -50 28 -68 74 -68 168 0 94
18 138 69 172 44 30 98 30 141 1z"/>
<path d="M440 950 l0 -90 211 0 c165 0 210 -3 206 -12 -2 -7 -109 -163 -236
-347 l-231 -334 0 -58 0 -59 385 0 385 0 0 90 0 90 -235 0 c-129 0 -235 2
-235 5 0 3 104 156 230 340 l230 335 0 65 0 65 -355 0 -355 0 0 -90z"/>
<path d="M1455 756 c-38 -8 -89 -21 -111 -30 l-41 -17 19 -68 20 -68 51 19
c65 25 161 33 213 19 44 -12 58 -23 68 -56 6 -19 -1 -21 -93 -32 -164 -20
-257 -68 -303 -156 -28 -53 -31 -157 -6 -203 73 -136 255 -163 394 -58 l32 23
6 -39 6 -40 98 0 97 0 -2 113 c-2 61 -4 177 -6 257 -3 160 -16 207 -73 264
-72 72 -220 101 -369 72z m225 -427 c0 -56 -3 -64 -34 -95 -29 -29 -41 -34
-82 -34 -62 0 -94 27 -94 80 0 64 66 107 168 109 l42 1 0 -61z"/>
</g>
</svg>
