<?xml version="1.0" encoding="utf-8"?>
<!-- Generator: Adobe Illustrator 16.0.0, SVG Export Plug-In . SVG Version: 6.00 Build 0)  -->
<!DOCTYPE svg PUBLIC "-//W3C//DTD SVG 1.1//EN" "http://www.w3.org/Graphics/SVG/1.1/DTD/svg11.dtd">
<svg version="1.1" id="Layer_1" xmlns="http://www.w3.org/2000/svg" xmlns:xlink="http://www.w3.org/1999/xlink" x="0px" y="0px"
	 width="1000px" height="1000px" viewBox="0 0 1000 1000" enable-background="new 0 0 1000 1000" xml:space="preserve">
<g>
	<path fill="#442161" d="M107.038,599.612l97.051-128.536h-88.144v-25.918h132.37v18.513l-97.357,128.536h97.972v25.919H107.038
		V599.612z"/>
	<path fill="#442161" d="M272.27,583.215c0-13.927,7.064-24.684,21.191-32.267c14.128-7.578,36.648-12.868,67.567-15.868
		c0-3.348-0.513-6.566-1.536-9.653c-1.027-3.083-2.61-5.818-4.76-8.199c-2.15-2.38-4.914-4.231-8.292-5.554
		c-3.378-1.322-7.63-1.983-12.746-1.983c-7.578,0-14.896,1.235-21.959,3.702c-7.064,2.472-13.873,5.468-20.424,8.992l-12.899-20.364
		c8.393-4.583,17.76-8.55,28.102-11.902c10.337-3.347,21.547-5.025,33.63-5.025c19.042,0,33.169,4.806,42.383,14.414
		c9.214,9.612,13.821,23.497,13.821,41.655v76.963h-28.87l-2.764-14.282h-0.921c-6.756,4.938-13.974,9.084-21.652,12.431
		c-7.678,3.348-16.023,5.025-25.031,5.025c-13.312,0-24.109-3.479-32.401-10.447C276.416,603.89,272.27,594.679,272.27,583.215z
		 M306.667,580.835c0,5.818,1.996,10.05,5.989,12.694c3.993,2.646,9.161,3.968,15.51,3.968c6.143,0,11.771-1.231,16.892-3.703
		c5.116-2.467,10.442-5.992,15.97-10.579v-29.093c-10.24,1.059-18.84,2.472-25.798,4.232c-6.963,1.764-12.544,3.748-16.738,5.95
		c-4.199,2.207-7.217,4.72-9.06,7.538C307.589,574.665,306.667,577.661,306.667,580.835z"/>
	<path fill="#442161" d="M439.343,431.405h35.319v48.135l-0.921,21.687c6.344-4.76,13.254-8.637,20.73-11.637
		c7.472-2.996,15.097-4.496,22.88-4.496c9.415,0,17.813,1.545,25.185,4.628c7.371,3.087,13.614,7.496,18.734,13.224
		c5.115,5.731,9.007,12.653,11.671,20.761c2.658,8.112,3.992,17.191,3.992,27.241c0,11.108-1.795,21.026-5.375,29.754
		c-3.584,8.728-8.345,16.092-14.281,22.084c-5.94,5.996-12.798,10.579-20.577,13.753c-7.783,3.174-15.869,4.761-24.263,4.761
		c-6.963,0-13.974-1.413-21.038-4.231c-7.063-2.818-13.772-6.877-20.116-12.166h-0.921l-3.071,13.224h-27.948V431.405z
		 M474.662,585.331c5.322,4.058,10.596,6.876,15.817,8.463c5.221,1.587,10.083,2.381,14.589,2.381
		c10.029,0,18.427-3.744,25.184-11.241c6.757-7.492,10.135-18.646,10.135-33.456c0-13.046-2.563-23.183-7.678-30.415
		c-5.12-7.228-13.413-10.844-24.877-10.844c-10.648,0-21.705,4.852-33.169,14.547V585.331z"/>
</g>
<g>
	<path fill="#442161" d="M556.421,458.607h1.93c1.053,0,2.31,0.446,3.771,1.335c1.461,0.891,2.193,2.098,2.193,3.624
		c0,3.052-0.614,5.29-1.842,6.713c-1.229,1.424-3.202,3.001-5.921,4.73c-2.72,1.729-4.636,2.594-5.745,2.594
		c-2.456,0-4.27-0.483-5.438-1.45c-1.171-0.965-1.755-3.61-1.755-7.934c0-4.017,0.264-6.408,0.79-7.171
		c0.526-0.763,1.798-1.36,3.815-1.793C550.237,458.824,552.97,458.607,556.421,458.607z"/>
	<path fill="#442161" d="M612.821,484.01c-8.771,0-15.512-2.187-20.219-6.561c-4.707-4.373-7.061-10.501-7.061-18.385
		c0-13.274,6.052-27.272,18.156-41.996c12.105-14.723,23.361-22.085,33.771-22.085c4.736,0,8.815,2.226,12.236,6.675
		c3.421,4.451,5.131,9.167,5.131,14.151c0,3.001-0.745,5.582-2.236,7.743c-1.491,2.163-2.998,3.242-4.518,3.242
		c-3.392,0-5.789-2.975-7.192-8.925c-1.579-6.408-3.859-9.612-6.842-9.612c-6.082,0-13.275,6.282-21.578,18.843
		c-8.304,12.563-12.455,23.166-12.455,31.812c0,8.646,5.643,12.969,16.929,12.969c8.596,0,18.712-3.509,30.35-10.527
		c4.092-2.491,7.104-3.738,9.034-3.738c1.987,0,2.982,0.992,2.982,2.975c0,3.866-5.234,8.735-15.701,14.609
		C633.141,481.073,622.878,484.01,612.821,484.01z"/>
	<path fill="#442161" d="M696.676,462.727c0,3.866,0.614,8.214,1.843,13.045c0.232,0.916,0.351,1.678,0.351,2.289
		c0,0.916-0.965,2.098-2.895,3.547s-3.978,2.174-6.14,2.174c-5.673,0-8.509-4.526-8.509-13.579c0-9.357,2.222-24.157,6.666-44.399
		c1.521-7.068,2.281-11.417,2.281-13.045c0-3.204,0.671-5.937,2.018-8.201c1.344-2.263,3.245-3.395,5.701-3.395
		c2.982,0,5.335,0.624,7.061,1.869c1.725,1.247,2.588,2.632,2.588,4.158s-0.41,3.535-1.229,6.026
		c-4.386,13.427-7.104,23.039-8.157,28.836S696.676,454.743,696.676,462.727z M708.167,377.514c-1.229,0-2.164-1.144-2.807-3.433
		c-0.234-0.711-0.557-1.5-0.965-2.365c-1.579-3.306-2.369-6.179-2.369-8.621c0-2.034,1.389-4.106,4.167-6.217
		c2.776-2.11,5.861-3.166,9.254-3.166c1.695,0,3.596,0.572,5.701,1.716c2.105,1.145,3.158,2.25,3.158,3.319
		c0,1.678-0.717,4.527-2.149,8.544c-1.434,4.018-3.714,6.727-6.842,8.125C712.187,376.816,709.804,377.514,708.167,377.514z"/>
	<path fill="#442161" d="M767.549,402.689c6.022-0.406,11.695-0.889,17.017-1.449c5.264-0.508,9.649-0.763,13.157-0.763
		c4.443,0,7.25,0.356,8.421,1.068c1.169,0.713,1.754,1.958,1.754,3.738c0,4.12-3.304,6.358-9.911,6.713
		c-8.479,0.458-16.286,1.094-23.42,1.907c-7.135,0.814-10.979,1.487-11.534,2.021c-0.557,0.534-2.324,6.587-5.307,18.156
		c-2.982,11.57-4.474,19.084-4.474,22.542c0,5.595,0.847,9.32,2.544,11.176c1.695,1.857,4.238,2.785,7.631,2.785
		c5.028,0,12.017-3.28,20.964-9.841c3.449-2.695,6.109-4.043,7.981-4.043c2.514,0,3.772,1.171,3.772,3.509
		c0,3.662-4.051,8.405-12.148,14.228c-8.101,5.823-16.39,8.735-24.867,8.735c-14.152,0-21.227-7.248-21.227-21.742
		c0-5.238,1.461-13.35,4.385-24.335c2.865-10.934,4.299-17.495,4.299-19.682c0-0.763-0.702-1.144-2.105-1.144l-9.122,0.687
		c-7.486,0-11.228-2.594-11.228-7.781c0-2.949,1.724-4.425,5.175-4.425h18.069c1.228,0,2.31-0.482,3.245-1.449
		c0.935-0.965,2.31-4.208,4.123-9.727c1.812-5.518,3.421-10.972,4.824-16.363c1.403-5.34,4.151-8.01,8.245-8.01
		c2.514,0,4.474,0.763,5.877,2.289s2.105,2.95,2.105,4.272c0,0.713-1.053,4.348-3.158,10.909L767.549,402.689z"/>
	<path fill="#442161" d="M880.876,452.733c-10.761,8.138-20.219,14.05-28.376,17.737c-8.157,3.688-14.4,5.531-18.727,5.531
		c-5.79,0-10.219-2.098-13.289-6.294s-4.605-9.09-4.605-14.685c0-7.831,1.827-17.508,5.482-29.027
		c3.654-11.52,6.373-18.359,8.157-20.521c1.783-2.161,4.634-3.242,8.553-3.242c1.636,0,2.982,0.839,4.034,2.517
		c1.053,1.678,1.579,3.585,1.579,5.722c0,1.272-0.673,2.925-2.018,4.958c-3.157,4.781-4.811,7.426-4.956,7.934
		c-0.146,0.509-1.271,3.573-3.377,9.192c-2.104,5.62-3.157,10.897-3.157,15.83c0,1.729,0.482,4.424,1.447,8.086
		c0.965,3.662,2.967,5.493,6.009,5.493c3.215,0,7.177-0.851,11.885-2.556c4.706-1.704,10.014-4.488,15.92-8.354
		c5.906-3.864,9.882-6.992,11.93-9.383c2.046-2.39,3.493-5.111,4.342-8.163c0.847-3.052,1.447-9.662,1.798-19.834
		c0.351-10.171,3.187-15.257,8.509-15.257c3.157,0,5.203,0.725,6.14,2.174c0.935,1.449,1.403,4.208,1.403,8.277
		c0,3.356-0.263,7.552-0.789,12.587c-0.645,6.358-1.053,10.884-1.229,13.579c-0.819,13.986-2.909,28.035-6.271,42.148
		c-3.363,14.113-8.26,25.911-14.692,35.397c-6.433,9.484-15.292,14.227-26.577,14.227c-11.462,0-21.651-2.606-30.568-7.818
		c-8.918-5.215-13.376-9.625-13.376-13.236c0-1.678,0.452-3.332,1.359-4.958c0.905-1.628,2.062-2.441,3.465-2.441
		c0.701,0,1.461,0.482,2.28,1.449c7.66,10.222,19.705,15.333,36.139,15.333c8.478,0,15.598-6.472,21.358-19.415
		c5.759-12.943,8.932-25.085,9.517-36.427C880.29,457.107,880.524,454.92,880.876,452.733z"/>
</g>
<g>
</g>
<g>
</g>
<g>
</g>
<g>
</g>
<g>
</g>
<g>
</g>
</svg>
